<?xml version="1.0" encoding="UTF-8"?>
<svg xmlns="http://www.w3.org/2000/svg" xmlns:xlink="http://www.w3.org/1999/xlink" width="320pt" height="233pt" viewBox="0 0 320 233" version="1.1">
<defs>
<clipPath id="clip1">
  <path d="M 98 12.703125 L 100 12.703125 L 100 185.953125 L 98 185.953125 Z M 98 12.703125 "/>
</clipPath>
<clipPath id="clip2">
  <path d="M 143 12.703125 L 145 12.703125 L 145 185.953125 L 143 185.953125 Z M 143 12.703125 "/>
</clipPath>
<clipPath id="clip3">
  <path d="M 188 12.703125 L 190 12.703125 L 190 185.953125 L 188 185.953125 Z M 188 12.703125 "/>
</clipPath>
<clipPath id="clip4">
  <path d="M 232 12.703125 L 235 12.703125 L 235 185.953125 L 232 185.953125 Z M 232 12.703125 "/>
</clipPath>
<clipPath id="clip5">
  <path d="M 277 12.703125 L 280 12.703125 L 280 185.953125 L 277 185.953125 Z M 277 12.703125 "/>
</clipPath>
<clipPath id="clip6">
  <path d="M 66.660156 177 L 310.785156 177 L 310.785156 179 L 66.660156 179 Z M 66.660156 177 "/>
</clipPath>
<clipPath id="clip7">
  <path d="M 66.660156 136 L 310.785156 136 L 310.785156 138 L 66.660156 138 Z M 66.660156 136 "/>
</clipPath>
<clipPath id="clip8">
  <path d="M 66.660156 95 L 310.785156 95 L 310.785156 97 L 66.660156 97 Z M 66.660156 95 "/>
</clipPath>
<clipPath id="clip9">
  <path d="M 66.660156 54 L 310.785156 54 L 310.785156 56 L 66.660156 56 Z M 66.660156 54 "/>
</clipPath>
<clipPath id="clip10">
  <path d="M 66.660156 13 L 310.785156 13 L 310.785156 15 L 66.660156 15 Z M 66.660156 13 "/>
</clipPath>
</defs>
<g id="surface1">
<path style=" stroke:none;fill-rule:nonzero;fill:rgb(100%,100%,100%);fill-opacity:1;" d="M 0 232.898438 L 319.785156 232.898438 L 319.785156 0 L 0 0 Z M 0 232.898438 "/>
<path style=" stroke:none;fill-rule:nonzero;fill:rgb(100%,100%,100%);fill-opacity:1;" d="M 66.660156 185.953125 L 310.785156 185.953125 L 310.785156 12.703125 L 66.660156 12.703125 Z M 66.660156 185.953125 "/>
<g clip-path="url(#clip1)" clip-rule="nonzero">
<path style="fill:none;stroke-width:0.8;stroke-linecap:square;stroke-linejoin:round;stroke:rgb(69.019608%,69.019608%,69.019608%);stroke-opacity:1;stroke-miterlimit:4;" d="M 79.290625 148.7625 L 79.290625 10.1625 " transform="matrix(1.25,0,0,1.25,0,0)"/>
</g>
<path style="fill:none;stroke-width:0.8;stroke-linecap:butt;stroke-linejoin:round;stroke:rgb(0%,0%,0%);stroke-opacity:1;stroke-miterlimit:4;" d="M -0.001047 -0.000338 L -0.001047 3.499662 " transform="matrix(1.25,0,0,1.25,99.11459,185.953547)"/>
<path style=" stroke:none;fill-rule:nonzero;fill:rgb(0%,0%,0%);fill-opacity:1;" d="M 87.25 199.765625 L 95.074219 199.765625 L 95.074219 200.800781 L 87.25 200.800781 Z M 87.25 199.765625 "/>
<path style=" stroke:none;fill-rule:nonzero;fill:rgb(0%,0%,0%);fill-opacity:1;" d="M 97.746094 195.089844 L 102.585938 195.089844 L 102.585938 196.128906 L 98.875 196.128906 L 98.875 198.359375 C 99.054688 198.296875 99.234375 198.253906 99.410156 198.222656 C 99.589844 198.191406 99.769531 198.179688 99.949219 198.179688 C 100.96875 198.179688 101.773438 198.457031 102.367188 199.015625 C 102.960938 199.570312 103.257812 200.324219 103.257812 201.277344 C 103.257812 202.257812 102.953125 203.019531 102.34375 203.566406 C 101.734375 204.109375 100.871094 204.378906 99.761719 204.378906 C 99.378906 204.378906 98.988281 204.347656 98.589844 204.28125 C 98.195312 204.214844 97.785156 204.117188 97.363281 203.988281 L 97.363281 202.75 C 97.730469 202.949219 98.105469 203.097656 98.496094 203.195312 C 98.886719 203.292969 99.300781 203.339844 99.734375 203.339844 C 100.441406 203.339844 100.996094 203.15625 101.40625 202.785156 C 101.820312 202.414062 102.023438 201.914062 102.023438 201.277344 C 102.023438 200.644531 101.820312 200.140625 101.40625 199.773438 C 100.996094 199.402344 100.441406 199.214844 99.734375 199.214844 C 99.40625 199.214844 99.078125 199.25 98.75 199.324219 C 98.421875 199.398438 98.089844 199.511719 97.746094 199.667969 Z M 97.746094 195.089844 "/>
<path style=" stroke:none;fill-rule:nonzero;fill:rgb(0%,0%,0%);fill-opacity:1;" d="M 108.324219 195.902344 C 107.6875 195.902344 107.210938 196.214844 106.890625 196.839844 C 106.574219 197.460938 106.414062 198.402344 106.414062 199.65625 C 106.414062 200.902344 106.574219 201.839844 106.890625 202.464844 C 107.210938 203.089844 107.6875 203.402344 108.324219 203.402344 C 108.960938 203.402344 109.441406 203.089844 109.761719 202.464844 C 110.082031 201.839844 110.242188 200.902344 110.242188 199.65625 C 110.242188 198.402344 110.082031 197.460938 109.761719 196.839844 C 109.441406 196.214844 108.960938 195.902344 108.324219 195.902344 Z M 108.324219 194.925781 C 109.34375 194.925781 110.125 195.328125 110.664062 196.136719 C 111.203125 196.945312 111.472656 198.117188 111.472656 199.65625 C 111.472656 201.1875 111.203125 202.359375 110.664062 203.167969 C 110.125 203.976562 109.34375 204.378906 108.324219 204.378906 C 107.300781 204.378906 106.523438 203.976562 105.984375 203.167969 C 105.445312 202.359375 105.175781 201.1875 105.175781 199.65625 C 105.175781 198.117188 105.445312 196.945312 105.984375 196.136719 C 106.523438 195.328125 107.300781 194.925781 108.324219 194.925781 Z M 108.324219 194.925781 "/>
<g clip-path="url(#clip2)" clip-rule="nonzero">
<path style="fill:none;stroke-width:0.8;stroke-linecap:square;stroke-linejoin:round;stroke:rgb(69.019608%,69.019608%,69.019608%);stroke-opacity:1;stroke-miterlimit:4;" d="M 115.134375 148.7625 L 115.134375 10.1625 " transform="matrix(1.25,0,0,1.25,0,0)"/>
</g>
<path style="fill:none;stroke-width:0.8;stroke-linecap:butt;stroke-linejoin:round;stroke:rgb(0%,0%,0%);stroke-opacity:1;stroke-miterlimit:4;" d="M -0.000524 -0.000338 L -0.000524 3.499662 " transform="matrix(1.25,0,0,1.25,143.918624,185.953547)"/>
<path style=" stroke:none;fill-rule:nonzero;fill:rgb(0%,0%,0%);fill-opacity:1;" d="M 132.050781 199.765625 L 139.875 199.765625 L 139.875 200.800781 L 132.050781 200.800781 Z M 132.050781 199.765625 "/>
<path style=" stroke:none;fill-rule:nonzero;fill:rgb(0%,0%,0%);fill-opacity:1;" d="M 143.601562 203.164062 L 147.902344 203.164062 L 147.902344 204.203125 L 142.117188 204.203125 L 142.117188 203.164062 C 142.585938 202.679688 143.222656 202.03125 144.03125 201.214844 C 144.839844 200.398438 145.347656 199.871094 145.554688 199.636719 C 145.949219 199.191406 146.222656 198.816406 146.378906 198.511719 C 146.539062 198.203125 146.617188 197.902344 146.617188 197.605469 C 146.617188 197.121094 146.445312 196.726562 146.105469 196.421875 C 145.765625 196.113281 145.324219 195.960938 144.777344 195.960938 C 144.390625 195.960938 143.984375 196.027344 143.554688 196.164062 C 143.125 196.296875 142.667969 196.5 142.179688 196.773438 L 142.179688 195.527344 C 142.675781 195.328125 143.136719 195.179688 143.570312 195.078125 C 144 194.976562 144.398438 194.925781 144.753906 194.925781 C 145.699219 194.925781 146.453125 195.160156 147.011719 195.632812 C 147.574219 196.105469 147.855469 196.734375 147.855469 197.523438 C 147.855469 197.898438 147.785156 198.253906 147.644531 198.589844 C 147.503906 198.925781 147.25 199.320312 146.878906 199.777344 C 146.777344 199.894531 146.453125 200.234375 145.90625 200.800781 C 145.363281 201.363281 144.59375 202.152344 143.601562 203.164062 Z M 143.601562 203.164062 "/>
<path style=" stroke:none;fill-rule:nonzero;fill:rgb(0%,0%,0%);fill-opacity:1;" d="M 150.503906 195.089844 L 155.34375 195.089844 L 155.34375 196.128906 L 151.632812 196.128906 L 151.632812 198.359375 C 151.8125 198.296875 151.988281 198.253906 152.167969 198.222656 C 152.347656 198.191406 152.527344 198.179688 152.707031 198.179688 C 153.722656 198.179688 154.53125 198.457031 155.125 199.015625 C 155.71875 199.570312 156.015625 200.324219 156.015625 201.277344 C 156.015625 202.257812 155.710938 203.019531 155.101562 203.566406 C 154.488281 204.109375 153.628906 204.378906 152.519531 204.378906 C 152.136719 204.378906 151.746094 204.347656 151.347656 204.28125 C 150.953125 204.214844 150.542969 204.117188 150.121094 203.988281 L 150.121094 202.75 C 150.484375 202.949219 150.863281 203.097656 151.253906 203.195312 C 151.644531 203.292969 152.058594 203.339844 152.492188 203.339844 C 153.195312 203.339844 153.753906 203.15625 154.164062 202.785156 C 154.574219 202.414062 154.78125 201.914062 154.78125 201.277344 C 154.78125 200.644531 154.574219 200.140625 154.164062 199.773438 C 153.753906 199.402344 153.195312 199.214844 152.492188 199.214844 C 152.164062 199.214844 151.835938 199.25 151.507812 199.324219 C 151.179688 199.398438 150.84375 199.511719 150.503906 199.667969 Z M 150.503906 195.089844 "/>
<g clip-path="url(#clip3)" clip-rule="nonzero">
<path style="fill:none;stroke-width:0.8;stroke-linecap:square;stroke-linejoin:round;stroke:rgb(69.019608%,69.019608%,69.019608%);stroke-opacity:1;stroke-miterlimit:4;" d="M 150.978125 148.7625 L 150.978125 10.1625 " transform="matrix(1.25,0,0,1.25,0,0)"/>
</g>
<path style="fill:none;stroke-width:0.8;stroke-linecap:butt;stroke-linejoin:round;stroke:rgb(0%,0%,0%);stroke-opacity:1;stroke-miterlimit:4;" d="M -0.000001 -0.000338 L -0.000001 3.499662 " transform="matrix(1.25,0,0,1.25,188.722657,185.953547)"/>
<path style=" stroke:none;fill-rule:nonzero;fill:rgb(0%,0%,0%);fill-opacity:1;" d="M 188.71875 195.902344 C 188.085938 195.902344 187.609375 196.214844 187.289062 196.839844 C 186.96875 197.460938 186.808594 198.402344 186.808594 199.65625 C 186.808594 200.902344 186.96875 201.839844 187.289062 202.464844 C 187.609375 203.089844 188.085938 203.402344 188.71875 203.402344 C 189.359375 203.402344 189.835938 203.089844 190.15625 202.464844 C 190.476562 201.839844 190.636719 200.902344 190.636719 199.65625 C 190.636719 198.402344 190.476562 197.460938 190.15625 196.839844 C 189.835938 196.214844 189.359375 195.902344 188.71875 195.902344 Z M 188.71875 194.925781 C 189.742188 194.925781 190.523438 195.328125 191.0625 196.136719 C 191.601562 196.945312 191.871094 198.117188 191.871094 199.65625 C 191.871094 201.1875 191.601562 202.359375 191.0625 203.167969 C 190.523438 203.976562 189.742188 204.378906 188.71875 204.378906 C 187.699219 204.378906 186.917969 203.976562 186.378906 203.167969 C 185.839844 202.359375 185.570312 201.1875 185.570312 199.65625 C 185.570312 198.117188 185.839844 196.945312 186.378906 196.136719 C 186.917969 195.328125 187.699219 194.925781 188.71875 194.925781 Z M 188.71875 194.925781 "/>
<g clip-path="url(#clip4)" clip-rule="nonzero">
<path style="fill:none;stroke-width:0.8;stroke-linecap:square;stroke-linejoin:round;stroke:rgb(69.019608%,69.019608%,69.019608%);stroke-opacity:1;stroke-miterlimit:4;" d="M 186.821875 148.7625 L 186.821875 10.1625 " transform="matrix(1.25,0,0,1.25,0,0)"/>
</g>
<path style="fill:none;stroke-width:0.8;stroke-linecap:butt;stroke-linejoin:round;stroke:rgb(0%,0%,0%);stroke-opacity:1;stroke-miterlimit:4;" d="M 0.000522 -0.000338 L 0.000522 3.499662 " transform="matrix(1.25,0,0,1.25,233.526691,185.953547)"/>
<path style=" stroke:none;fill-rule:nonzero;fill:rgb(0%,0%,0%);fill-opacity:1;" d="M 227.972656 203.164062 L 232.273438 203.164062 L 232.273438 204.203125 L 226.488281 204.203125 L 226.488281 203.164062 C 226.957031 202.679688 227.59375 202.03125 228.402344 201.214844 C 229.210938 200.398438 229.71875 199.871094 229.925781 199.636719 C 230.320312 199.191406 230.59375 198.816406 230.75 198.511719 C 230.910156 198.203125 230.988281 197.902344 230.988281 197.605469 C 230.988281 197.121094 230.816406 196.726562 230.476562 196.421875 C 230.136719 196.113281 229.695312 195.960938 229.148438 195.960938 C 228.761719 195.960938 228.355469 196.027344 227.925781 196.164062 C 227.496094 196.296875 227.039062 196.5 226.550781 196.773438 L 226.550781 195.527344 C 227.046875 195.328125 227.507812 195.179688 227.941406 195.078125 C 228.371094 194.976562 228.769531 194.925781 229.125 194.925781 C 230.070312 194.925781 230.824219 195.160156 231.382812 195.632812 C 231.945312 196.105469 232.226562 196.734375 232.226562 197.523438 C 232.226562 197.898438 232.15625 198.253906 232.015625 198.589844 C 231.875 198.925781 231.621094 199.320312 231.25 199.777344 C 231.148438 199.894531 230.824219 200.234375 230.277344 200.800781 C 229.734375 201.363281 228.964844 202.152344 227.972656 203.164062 Z M 227.972656 203.164062 "/>
<path style=" stroke:none;fill-rule:nonzero;fill:rgb(0%,0%,0%);fill-opacity:1;" d="M 234.875 195.089844 L 239.714844 195.089844 L 239.714844 196.128906 L 236.003906 196.128906 L 236.003906 198.359375 C 236.183594 198.296875 236.363281 198.253906 236.539062 198.222656 C 236.71875 198.191406 236.898438 198.179688 237.078125 198.179688 C 238.097656 198.179688 238.902344 198.457031 239.496094 199.015625 C 240.089844 199.570312 240.386719 200.324219 240.386719 201.277344 C 240.386719 202.257812 240.082031 203.019531 239.472656 203.566406 C 238.859375 204.109375 238 204.378906 236.890625 204.378906 C 236.507812 204.378906 236.117188 204.347656 235.71875 204.28125 C 235.324219 204.214844 234.914062 204.117188 234.492188 203.988281 L 234.492188 202.75 C 234.855469 202.949219 235.234375 203.097656 235.625 203.195312 C 236.015625 203.292969 236.429688 203.339844 236.863281 203.339844 C 237.570312 203.339844 238.125 203.15625 238.535156 202.785156 C 238.949219 202.414062 239.152344 201.914062 239.152344 201.277344 C 239.152344 200.644531 238.949219 200.140625 238.535156 199.773438 C 238.125 199.402344 237.570312 199.214844 236.863281 199.214844 C 236.535156 199.214844 236.207031 199.25 235.878906 199.324219 C 235.550781 199.398438 235.21875 199.511719 234.875 199.667969 Z M 234.875 195.089844 "/>
<g clip-path="url(#clip5)" clip-rule="nonzero">
<path style="fill:none;stroke-width:0.8;stroke-linecap:square;stroke-linejoin:round;stroke:rgb(69.019608%,69.019608%,69.019608%);stroke-opacity:1;stroke-miterlimit:4;" d="M 222.665625 148.7625 L 222.665625 10.1625 " transform="matrix(1.25,0,0,1.25,0,0)"/>
</g>
<path style="fill:none;stroke-width:0.8;stroke-linecap:butt;stroke-linejoin:round;stroke:rgb(0%,0%,0%);stroke-opacity:1;stroke-miterlimit:4;" d="M 0.001044 -0.000338 L 0.001044 3.499662 " transform="matrix(1.25,0,0,1.25,278.330726,185.953547)"/>
<path style=" stroke:none;fill-rule:nonzero;fill:rgb(0%,0%,0%);fill-opacity:1;" d="M 271.726562 195.089844 L 276.566406 195.089844 L 276.566406 196.128906 L 272.855469 196.128906 L 272.855469 198.359375 C 273.035156 198.296875 273.210938 198.253906 273.390625 198.222656 C 273.570312 198.191406 273.75 198.179688 273.929688 198.179688 C 274.945312 198.179688 275.753906 198.457031 276.347656 199.015625 C 276.941406 199.570312 277.238281 200.324219 277.238281 201.277344 C 277.238281 202.257812 276.933594 203.019531 276.324219 203.566406 C 275.710938 204.109375 274.851562 204.378906 273.742188 204.378906 C 273.359375 204.378906 272.96875 204.347656 272.570312 204.28125 C 272.175781 204.214844 271.765625 204.117188 271.34375 203.988281 L 271.34375 202.75 C 271.707031 202.949219 272.085938 203.097656 272.476562 203.195312 C 272.867188 203.292969 273.28125 203.339844 273.714844 203.339844 C 274.417969 203.339844 274.976562 203.15625 275.386719 202.785156 C 275.796875 202.414062 276.003906 201.914062 276.003906 201.277344 C 276.003906 200.644531 275.796875 200.140625 275.386719 199.773438 C 274.976562 199.402344 274.417969 199.214844 273.714844 199.214844 C 273.386719 199.214844 273.058594 199.25 272.730469 199.324219 C 272.402344 199.398438 272.066406 199.511719 271.726562 199.667969 Z M 271.726562 195.089844 "/>
<path style=" stroke:none;fill-rule:nonzero;fill:rgb(0%,0%,0%);fill-opacity:1;" d="M 282.304688 195.902344 C 281.667969 195.902344 281.191406 196.214844 280.871094 196.839844 C 280.550781 197.460938 280.394531 198.402344 280.394531 199.65625 C 280.394531 200.902344 280.550781 201.839844 280.871094 202.464844 C 281.191406 203.089844 281.667969 203.402344 282.304688 203.402344 C 282.941406 203.402344 283.421875 203.089844 283.742188 202.464844 C 284.0625 201.839844 284.222656 200.902344 284.222656 199.65625 C 284.222656 198.402344 284.0625 197.460938 283.742188 196.839844 C 283.421875 196.214844 282.941406 195.902344 282.304688 195.902344 Z M 282.304688 194.925781 C 283.324219 194.925781 284.105469 195.328125 284.644531 196.136719 C 285.183594 196.945312 285.453125 198.117188 285.453125 199.65625 C 285.453125 201.1875 285.183594 202.359375 284.644531 203.167969 C 284.105469 203.976562 283.324219 204.378906 282.304688 204.378906 C 281.28125 204.378906 280.503906 203.976562 279.964844 203.167969 C 279.425781 202.359375 279.15625 201.1875 279.15625 199.65625 C 279.15625 198.117188 279.425781 196.945312 279.964844 196.136719 C 280.503906 195.328125 281.28125 194.925781 282.304688 194.925781 Z M 282.304688 194.925781 "/>
<path style=" stroke:none;fill-rule:nonzero;fill:rgb(0%,0%,0%);fill-opacity:1;" d="M 191.882812 214.464844 L 189.414062 217.789062 L 192.011719 221.300781 L 190.6875 221.300781 L 188.695312 218.613281 L 186.710938 221.300781 L 185.382812 221.300781 L 188.039062 217.722656 L 185.609375 214.464844 L 186.933594 214.464844 L 188.746094 216.898438 L 190.558594 214.464844 Z M 191.882812 214.464844 "/>
<g clip-path="url(#clip6)" clip-rule="nonzero">
<path style="fill:none;stroke-width:0.8;stroke-linecap:square;stroke-linejoin:round;stroke:rgb(69.019608%,69.019608%,69.019608%);stroke-opacity:1;stroke-miterlimit:4;" d="M 53.328125 142.4625 L 248.628125 142.4625 " transform="matrix(1.25,0,0,1.25,0,0)"/>
</g>
<path style="fill:none;stroke-width:0.8;stroke-linecap:butt;stroke-linejoin:round;stroke:rgb(0%,0%,0%);stroke-opacity:1;stroke-miterlimit:4;" d="M 0 -0.000339 L -3.5 -0.000339 " transform="matrix(1.25,0,0,1.25,66.660156,178.078549)"/>
<path style=" stroke:none;fill-rule:nonzero;fill:rgb(0%,0%,0%);fill-opacity:1;" d="M 53.929688 174.527344 C 53.296875 174.527344 52.820312 174.839844 52.5 175.464844 C 52.179688 176.089844 52.019531 177.027344 52.019531 178.28125 C 52.019531 179.53125 52.179688 180.464844 52.5 181.089844 C 52.820312 181.714844 53.296875 182.027344 53.929688 182.027344 C 54.570312 182.027344 55.046875 181.714844 55.367188 181.089844 C 55.6875 180.464844 55.847656 179.53125 55.847656 178.28125 C 55.847656 177.027344 55.6875 176.089844 55.367188 175.464844 C 55.046875 174.839844 54.570312 174.527344 53.929688 174.527344 Z M 53.929688 173.550781 C 54.953125 173.550781 55.734375 173.953125 56.273438 174.761719 C 56.8125 175.570312 57.078125 176.742188 57.078125 178.28125 C 57.078125 179.816406 56.8125 180.984375 56.273438 181.792969 C 55.734375 182.601562 54.953125 183.003906 53.929688 183.003906 C 52.910156 183.003906 52.128906 182.601562 51.589844 181.792969 C 51.050781 180.984375 50.78125 179.816406 50.78125 178.28125 C 50.78125 176.742188 51.050781 175.570312 51.589844 174.761719 C 52.128906 173.953125 52.910156 173.550781 53.929688 173.550781 Z M 53.929688 173.550781 "/>
<g clip-path="url(#clip7)" clip-rule="nonzero">
<path style="fill:none;stroke-width:0.8;stroke-linecap:square;stroke-linejoin:round;stroke:rgb(69.019608%,69.019608%,69.019608%);stroke-opacity:1;stroke-miterlimit:4;" d="M 53.328125 109.596875 L 248.628125 109.596875 " transform="matrix(1.25,0,0,1.25,0,0)"/>
</g>
<path style="fill:none;stroke-width:0.8;stroke-linecap:butt;stroke-linejoin:round;stroke:rgb(0%,0%,0%);stroke-opacity:1;stroke-miterlimit:4;" d="M 0 -0.000059 L -3.5 -0.000059 " transform="matrix(1.25,0,0,1.25,66.660156,136.996168)"/>
<path style=" stroke:none;fill-rule:nonzero;fill:rgb(0%,0%,0%);fill-opacity:1;" d="M 27.648438 140.707031 L 29.664062 140.707031 L 29.664062 133.753906 L 27.46875 134.195312 L 27.46875 133.070312 L 29.648438 132.632812 L 30.882812 132.632812 L 30.882812 140.707031 L 32.898438 140.707031 L 32.898438 141.746094 L 27.648438 141.746094 Z M 27.648438 140.707031 "/>
<path style=" stroke:none;fill-rule:nonzero;fill:rgb(0%,0%,0%);fill-opacity:1;" d="M 38.023438 133.445312 C 37.390625 133.445312 36.910156 133.757812 36.589844 134.382812 C 36.273438 135.003906 36.113281 135.945312 36.113281 137.199219 C 36.113281 138.445312 36.273438 139.382812 36.589844 140.007812 C 36.910156 140.632812 37.390625 140.945312 38.023438 140.945312 C 38.664062 140.945312 39.140625 140.632812 39.460938 140.007812 C 39.78125 139.382812 39.941406 138.445312 39.941406 137.199219 C 39.941406 135.945312 39.78125 135.003906 39.460938 134.382812 C 39.140625 133.757812 38.664062 133.445312 38.023438 133.445312 Z M 38.023438 132.46875 C 39.046875 132.46875 39.824219 132.871094 40.363281 133.679688 C 40.902344 134.488281 41.171875 135.660156 41.171875 137.199219 C 41.171875 138.730469 40.902344 139.902344 40.363281 140.710938 C 39.824219 141.519531 39.046875 141.921875 38.023438 141.921875 C 37.003906 141.921875 36.222656 141.519531 35.683594 140.710938 C 35.144531 139.902344 34.875 138.730469 34.875 137.199219 C 34.875 135.660156 35.144531 134.488281 35.683594 133.679688 C 36.222656 132.871094 37.003906 132.46875 38.023438 132.46875 Z M 38.023438 132.46875 "/>
<path style=" stroke:none;fill-rule:nonzero;fill:rgb(0%,0%,0%);fill-opacity:1;" d="M 45.976562 133.445312 C 45.34375 133.445312 44.863281 133.757812 44.542969 134.382812 C 44.226562 135.003906 44.066406 135.945312 44.066406 137.199219 C 44.066406 138.445312 44.226562 139.382812 44.542969 140.007812 C 44.863281 140.632812 45.34375 140.945312 45.976562 140.945312 C 46.617188 140.945312 47.09375 140.632812 47.414062 140.007812 C 47.734375 139.382812 47.894531 138.445312 47.894531 137.199219 C 47.894531 135.945312 47.734375 135.003906 47.414062 134.382812 C 47.09375 133.757812 46.617188 133.445312 45.976562 133.445312 Z M 45.976562 132.46875 C 47 132.46875 47.777344 132.871094 48.316406 133.679688 C 48.855469 134.488281 49.125 135.660156 49.125 137.199219 C 49.125 138.730469 48.855469 139.902344 48.316406 140.710938 C 47.777344 141.519531 47 141.921875 45.976562 141.921875 C 44.957031 141.921875 44.175781 141.519531 43.636719 140.710938 C 43.097656 139.902344 42.828125 138.730469 42.828125 137.199219 C 42.828125 135.660156 43.097656 134.488281 43.636719 133.679688 C 44.175781 132.871094 44.957031 132.46875 45.976562 132.46875 Z M 45.976562 132.46875 "/>
<path style=" stroke:none;fill-rule:nonzero;fill:rgb(0%,0%,0%);fill-opacity:1;" d="M 53.929688 133.445312 C 53.292969 133.445312 52.816406 133.757812 52.496094 134.382812 C 52.179688 135.003906 52.019531 135.945312 52.019531 137.199219 C 52.019531 138.445312 52.179688 139.382812 52.496094 140.007812 C 52.816406 140.632812 53.292969 140.945312 53.929688 140.945312 C 54.566406 140.945312 55.046875 140.632812 55.367188 140.007812 C 55.6875 139.382812 55.847656 138.445312 55.847656 137.199219 C 55.847656 135.945312 55.6875 135.003906 55.367188 134.382812 C 55.046875 133.757812 54.566406 133.445312 53.929688 133.445312 Z M 53.929688 132.46875 C 54.949219 132.46875 55.730469 132.871094 56.269531 133.679688 C 56.808594 134.488281 57.078125 135.660156 57.078125 137.199219 C 57.078125 138.730469 56.808594 139.902344 56.269531 140.710938 C 55.730469 141.519531 54.949219 141.921875 53.929688 141.921875 C 52.90625 141.921875 52.128906 141.519531 51.589844 140.710938 C 51.050781 139.902344 50.78125 138.730469 50.78125 137.199219 C 50.78125 135.660156 51.050781 134.488281 51.589844 133.679688 C 52.128906 132.871094 52.90625 132.46875 53.929688 132.46875 Z M 53.929688 132.46875 "/>
<g clip-path="url(#clip8)" clip-rule="nonzero">
<path style="fill:none;stroke-width:0.8;stroke-linecap:square;stroke-linejoin:round;stroke:rgb(69.019608%,69.019608%,69.019608%);stroke-opacity:1;stroke-miterlimit:4;" d="M 53.328125 76.73125 L 248.628125 76.73125 " transform="matrix(1.25,0,0,1.25,0,0)"/>
</g>
<path style="fill:none;stroke-width:0.8;stroke-linecap:butt;stroke-linejoin:round;stroke:rgb(0%,0%,0%);stroke-opacity:1;stroke-miterlimit:4;" d="M 0 0.000221 L -3.5 0.000221 " transform="matrix(1.25,0,0,1.25,66.660156,95.913786)"/>
<path style=" stroke:none;fill-rule:nonzero;fill:rgb(0%,0%,0%);fill-opacity:1;" d="M 28.496094 99.625 L 32.796875 99.625 L 32.796875 100.664062 L 27.015625 100.664062 L 27.015625 99.625 C 27.480469 99.140625 28.117188 98.492188 28.925781 97.675781 C 29.734375 96.859375 30.242188 96.332031 30.449219 96.097656 C 30.84375 95.652344 31.117188 95.277344 31.273438 94.972656 C 31.433594 94.664062 31.511719 94.363281 31.511719 94.066406 C 31.511719 93.582031 31.34375 93.1875 31 92.882812 C 30.664062 92.574219 30.21875 92.421875 29.671875 92.421875 C 29.289062 92.421875 28.878906 92.488281 28.449219 92.625 C 28.019531 92.757812 27.5625 92.960938 27.074219 93.234375 L 27.074219 91.988281 C 27.570312 91.789062 28.035156 91.640625 28.464844 91.539062 C 28.898438 91.4375 29.292969 91.386719 29.648438 91.386719 C 30.59375 91.386719 31.347656 91.621094 31.90625 92.09375 C 32.46875 92.566406 32.75 93.195312 32.75 93.984375 C 32.75 94.359375 32.679688 94.714844 32.539062 95.050781 C 32.398438 95.386719 32.144531 95.78125 31.773438 96.238281 C 31.671875 96.355469 31.347656 96.695312 30.804688 97.261719 C 30.257812 97.824219 29.488281 98.613281 28.496094 99.625 Z M 28.496094 99.625 "/>
<path style=" stroke:none;fill-rule:nonzero;fill:rgb(0%,0%,0%);fill-opacity:1;" d="M 38.023438 92.363281 C 37.390625 92.363281 36.910156 92.675781 36.589844 93.300781 C 36.273438 93.921875 36.113281 94.863281 36.113281 96.117188 C 36.113281 97.363281 36.273438 98.300781 36.589844 98.925781 C 36.910156 99.550781 37.390625 99.863281 38.023438 99.863281 C 38.664062 99.863281 39.140625 99.550781 39.460938 98.925781 C 39.78125 98.300781 39.941406 97.363281 39.941406 96.117188 C 39.941406 94.863281 39.78125 93.921875 39.460938 93.300781 C 39.140625 92.675781 38.664062 92.363281 38.023438 92.363281 Z M 38.023438 91.386719 C 39.046875 91.386719 39.824219 91.789062 40.363281 92.597656 C 40.902344 93.40625 41.171875 94.578125 41.171875 96.117188 C 41.171875 97.648438 40.902344 98.820312 40.363281 99.628906 C 39.824219 100.4375 39.046875 100.839844 38.023438 100.839844 C 37.003906 100.839844 36.222656 100.4375 35.683594 99.628906 C 35.144531 98.820312 34.875 97.648438 34.875 96.117188 C 34.875 94.578125 35.144531 93.40625 35.683594 92.597656 C 36.222656 91.789062 37.003906 91.386719 38.023438 91.386719 Z M 38.023438 91.386719 "/>
<path style=" stroke:none;fill-rule:nonzero;fill:rgb(0%,0%,0%);fill-opacity:1;" d="M 45.976562 92.363281 C 45.34375 92.363281 44.863281 92.675781 44.542969 93.300781 C 44.226562 93.921875 44.066406 94.863281 44.066406 96.117188 C 44.066406 97.363281 44.226562 98.300781 44.542969 98.925781 C 44.863281 99.550781 45.34375 99.863281 45.976562 99.863281 C 46.617188 99.863281 47.09375 99.550781 47.414062 98.925781 C 47.734375 98.300781 47.894531 97.363281 47.894531 96.117188 C 47.894531 94.863281 47.734375 93.921875 47.414062 93.300781 C 47.09375 92.675781 46.617188 92.363281 45.976562 92.363281 Z M 45.976562 91.386719 C 47 91.386719 47.777344 91.789062 48.316406 92.597656 C 48.855469 93.40625 49.125 94.578125 49.125 96.117188 C 49.125 97.648438 48.855469 98.820312 48.316406 99.628906 C 47.777344 100.4375 47 100.839844 45.976562 100.839844 C 44.957031 100.839844 44.175781 100.4375 43.636719 99.628906 C 43.097656 98.820312 42.828125 97.648438 42.828125 96.117188 C 42.828125 94.578125 43.097656 93.40625 43.636719 92.597656 C 44.175781 91.789062 44.957031 91.386719 45.976562 91.386719 Z M 45.976562 91.386719 "/>
<path style=" stroke:none;fill-rule:nonzero;fill:rgb(0%,0%,0%);fill-opacity:1;" d="M 53.929688 92.363281 C 53.292969 92.363281 52.816406 92.675781 52.496094 93.300781 C 52.179688 93.921875 52.019531 94.863281 52.019531 96.117188 C 52.019531 97.363281 52.179688 98.300781 52.496094 98.925781 C 52.816406 99.550781 53.292969 99.863281 53.929688 99.863281 C 54.566406 99.863281 55.046875 99.550781 55.367188 98.925781 C 55.6875 98.300781 55.847656 97.363281 55.847656 96.117188 C 55.847656 94.863281 55.6875 93.921875 55.367188 93.300781 C 55.046875 92.675781 54.566406 92.363281 53.929688 92.363281 Z M 53.929688 91.386719 C 54.949219 91.386719 55.730469 91.789062 56.269531 92.597656 C 56.808594 93.40625 57.078125 94.578125 57.078125 96.117188 C 57.078125 97.648438 56.808594 98.820312 56.269531 99.628906 C 55.730469 100.4375 54.949219 100.839844 53.929688 100.839844 C 52.90625 100.839844 52.128906 100.4375 51.589844 99.628906 C 51.050781 98.820312 50.78125 97.648438 50.78125 96.117188 C 50.78125 94.578125 51.050781 93.40625 51.589844 92.597656 C 52.128906 91.789062 52.90625 91.386719 53.929688 91.386719 Z M 53.929688 91.386719 "/>
<g clip-path="url(#clip9)" clip-rule="nonzero">
<path style="fill:none;stroke-width:0.8;stroke-linecap:square;stroke-linejoin:round;stroke:rgb(69.019608%,69.019608%,69.019608%);stroke-opacity:1;stroke-miterlimit:4;" d="M 53.328125 43.865625 L 248.628125 43.865625 " transform="matrix(1.25,0,0,1.25,0,0)"/>
</g>
<path style="fill:none;stroke-width:0.8;stroke-linecap:butt;stroke-linejoin:round;stroke:rgb(0%,0%,0%);stroke-opacity:1;stroke-miterlimit:4;" d="M 0 0.000501 L -3.5 0.000501 " transform="matrix(1.25,0,0,1.25,66.660156,54.831405)"/>
<path style=" stroke:none;fill-rule:nonzero;fill:rgb(0%,0%,0%);fill-opacity:1;" d="M 31.171875 54.667969 C 31.757812 54.792969 32.21875 55.054688 32.550781 55.457031 C 32.882812 55.855469 33.046875 56.347656 33.046875 56.933594 C 33.046875 57.832031 32.738281 58.527344 32.121094 59.019531 C 31.503906 59.511719 30.625 59.757812 29.484375 59.757812 C 29.101562 59.757812 28.710938 59.71875 28.304688 59.644531 C 27.898438 59.570312 27.480469 59.457031 27.050781 59.304688 L 27.050781 58.117188 C 27.390625 58.316406 27.765625 58.464844 28.171875 58.566406 C 28.578125 58.667969 29.003906 58.71875 29.449219 58.71875 C 30.222656 58.71875 30.808594 58.566406 31.214844 58.261719 C 31.621094 57.957031 31.820312 57.515625 31.820312 56.933594 C 31.820312 56.394531 31.632812 55.972656 31.257812 55.671875 C 30.882812 55.367188 30.359375 55.21875 29.6875 55.21875 L 28.625 55.21875 L 28.625 54.203125 L 29.734375 54.203125 C 30.34375 54.203125 30.804688 54.082031 31.125 53.839844 C 31.449219 53.597656 31.609375 53.25 31.609375 52.792969 C 31.609375 52.324219 31.445312 51.96875 31.109375 51.71875 C 30.78125 51.464844 30.304688 51.339844 29.6875 51.339844 C 29.347656 51.339844 28.984375 51.378906 28.601562 51.453125 C 28.210938 51.523438 27.789062 51.636719 27.324219 51.792969 L 27.324219 50.695312 C 27.792969 50.5625 28.230469 50.464844 28.640625 50.402344 C 29.050781 50.335938 29.433594 50.304688 29.796875 50.304688 C 30.734375 50.304688 31.472656 50.515625 32.015625 50.941406 C 32.5625 51.367188 32.835938 51.941406 32.835938 52.664062 C 32.835938 53.167969 32.691406 53.597656 32.402344 53.945312 C 32.113281 54.292969 31.703125 54.53125 31.171875 54.667969 Z M 31.171875 54.667969 "/>
<path style=" stroke:none;fill-rule:nonzero;fill:rgb(0%,0%,0%);fill-opacity:1;" d="M 38.023438 51.28125 C 37.390625 51.28125 36.910156 51.59375 36.589844 52.21875 C 36.273438 52.839844 36.113281 53.78125 36.113281 55.035156 C 36.113281 56.28125 36.273438 57.21875 36.589844 57.84375 C 36.910156 58.46875 37.390625 58.78125 38.023438 58.78125 C 38.664062 58.78125 39.140625 58.46875 39.460938 57.84375 C 39.78125 57.21875 39.941406 56.28125 39.941406 55.035156 C 39.941406 53.78125 39.78125 52.839844 39.460938 52.21875 C 39.140625 51.59375 38.664062 51.28125 38.023438 51.28125 Z M 38.023438 50.304688 C 39.046875 50.304688 39.824219 50.707031 40.363281 51.515625 C 40.902344 52.324219 41.171875 53.496094 41.171875 55.035156 C 41.171875 56.566406 40.902344 57.738281 40.363281 58.546875 C 39.824219 59.355469 39.046875 59.757812 38.023438 59.757812 C 37.003906 59.757812 36.222656 59.355469 35.683594 58.546875 C 35.144531 57.738281 34.875 56.566406 34.875 55.035156 C 34.875 53.496094 35.144531 52.324219 35.683594 51.515625 C 36.222656 50.707031 37.003906 50.304688 38.023438 50.304688 Z M 38.023438 50.304688 "/>
<path style=" stroke:none;fill-rule:nonzero;fill:rgb(0%,0%,0%);fill-opacity:1;" d="M 45.976562 51.28125 C 45.34375 51.28125 44.863281 51.59375 44.542969 52.21875 C 44.226562 52.839844 44.066406 53.78125 44.066406 55.035156 C 44.066406 56.28125 44.226562 57.21875 44.542969 57.84375 C 44.863281 58.46875 45.34375 58.78125 45.976562 58.78125 C 46.617188 58.78125 47.09375 58.46875 47.414062 57.84375 C 47.734375 57.21875 47.894531 56.28125 47.894531 55.035156 C 47.894531 53.78125 47.734375 52.839844 47.414062 52.21875 C 47.09375 51.59375 46.617188 51.28125 45.976562 51.28125 Z M 45.976562 50.304688 C 47 50.304688 47.777344 50.707031 48.316406 51.515625 C 48.855469 52.324219 49.125 53.496094 49.125 55.035156 C 49.125 56.566406 48.855469 57.738281 48.316406 58.546875 C 47.777344 59.355469 47 59.757812 45.976562 59.757812 C 44.957031 59.757812 44.175781 59.355469 43.636719 58.546875 C 43.097656 57.738281 42.828125 56.566406 42.828125 55.035156 C 42.828125 53.496094 43.097656 52.324219 43.636719 51.515625 C 44.175781 50.707031 44.957031 50.304688 45.976562 50.304688 Z M 45.976562 50.304688 "/>
<path style=" stroke:none;fill-rule:nonzero;fill:rgb(0%,0%,0%);fill-opacity:1;" d="M 53.929688 51.28125 C 53.292969 51.28125 52.816406 51.59375 52.496094 52.21875 C 52.179688 52.839844 52.019531 53.78125 52.019531 55.035156 C 52.019531 56.28125 52.179688 57.21875 52.496094 57.84375 C 52.816406 58.46875 53.292969 58.78125 53.929688 58.78125 C 54.566406 58.78125 55.046875 58.46875 55.367188 57.84375 C 55.6875 57.21875 55.847656 56.28125 55.847656 55.035156 C 55.847656 53.78125 55.6875 52.839844 55.367188 52.21875 C 55.046875 51.59375 54.566406 51.28125 53.929688 51.28125 Z M 53.929688 50.304688 C 54.949219 50.304688 55.730469 50.707031 56.269531 51.515625 C 56.808594 52.324219 57.078125 53.496094 57.078125 55.035156 C 57.078125 56.566406 56.808594 57.738281 56.269531 58.546875 C 55.730469 59.355469 54.949219 59.757812 53.929688 59.757812 C 52.90625 59.757812 52.128906 59.355469 51.589844 58.546875 C 51.050781 57.738281 50.78125 56.566406 50.78125 55.035156 C 50.78125 53.496094 51.050781 52.324219 51.589844 51.515625 C 52.128906 50.707031 52.90625 50.304688 53.929688 50.304688 Z M 53.929688 50.304688 "/>
<g clip-path="url(#clip10)" clip-rule="nonzero">
<path style="fill:none;stroke-width:0.8;stroke-linecap:square;stroke-linejoin:round;stroke:rgb(69.019608%,69.019608%,69.019608%);stroke-opacity:1;stroke-miterlimit:4;" d="M 53.328125 11 L 248.628125 11 " transform="matrix(1.25,0,0,1.25,0,0)"/>
</g>
<path style="fill:none;stroke-width:0.8;stroke-linecap:butt;stroke-linejoin:round;stroke:rgb(0%,0%,0%);stroke-opacity:1;stroke-miterlimit:4;" d="M 0 0.000781 L -3.5 0.000781 " transform="matrix(1.25,0,0,1.25,66.660156,13.749024)"/>
<path style=" stroke:none;fill-rule:nonzero;fill:rgb(0%,0%,0%);fill-opacity:1;" d="M 30.820312 10.460938 L 27.710938 15.324219 L 30.820312 15.324219 Z M 30.5 9.386719 L 32.046875 9.386719 L 32.046875 15.324219 L 33.351562 15.324219 L 33.351562 16.351562 L 32.046875 16.351562 L 32.046875 18.5 L 30.820312 18.5 L 30.820312 16.351562 L 26.710938 16.351562 L 26.710938 15.160156 Z M 30.5 9.386719 "/>
<path style=" stroke:none;fill-rule:nonzero;fill:rgb(0%,0%,0%);fill-opacity:1;" d="M 38.023438 10.199219 C 37.390625 10.199219 36.910156 10.511719 36.589844 11.136719 C 36.273438 11.757812 36.113281 12.699219 36.113281 13.953125 C 36.113281 15.199219 36.273438 16.136719 36.589844 16.761719 C 36.910156 17.386719 37.390625 17.699219 38.023438 17.699219 C 38.664062 17.699219 39.140625 17.386719 39.460938 16.761719 C 39.78125 16.136719 39.941406 15.199219 39.941406 13.953125 C 39.941406 12.699219 39.78125 11.757812 39.460938 11.136719 C 39.140625 10.511719 38.664062 10.199219 38.023438 10.199219 Z M 38.023438 9.222656 C 39.046875 9.222656 39.824219 9.625 40.363281 10.433594 C 40.902344 11.242188 41.171875 12.414062 41.171875 13.953125 C 41.171875 15.484375 40.902344 16.65625 40.363281 17.464844 C 39.824219 18.273438 39.046875 18.675781 38.023438 18.675781 C 37.003906 18.675781 36.222656 18.273438 35.683594 17.464844 C 35.144531 16.65625 34.875 15.484375 34.875 13.953125 C 34.875 12.414062 35.144531 11.242188 35.683594 10.433594 C 36.222656 9.625 37.003906 9.222656 38.023438 9.222656 Z M 38.023438 9.222656 "/>
<path style=" stroke:none;fill-rule:nonzero;fill:rgb(0%,0%,0%);fill-opacity:1;" d="M 45.976562 10.199219 C 45.34375 10.199219 44.863281 10.511719 44.542969 11.136719 C 44.226562 11.757812 44.066406 12.699219 44.066406 13.953125 C 44.066406 15.199219 44.226562 16.136719 44.542969 16.761719 C 44.863281 17.386719 45.34375 17.699219 45.976562 17.699219 C 46.617188 17.699219 47.09375 17.386719 47.414062 16.761719 C 47.734375 16.136719 47.894531 15.199219 47.894531 13.953125 C 47.894531 12.699219 47.734375 11.757812 47.414062 11.136719 C 47.09375 10.511719 46.617188 10.199219 45.976562 10.199219 Z M 45.976562 9.222656 C 47 9.222656 47.777344 9.625 48.316406 10.433594 C 48.855469 11.242188 49.125 12.414062 49.125 13.953125 C 49.125 15.484375 48.855469 16.65625 48.316406 17.464844 C 47.777344 18.273438 47 18.675781 45.976562 18.675781 C 44.957031 18.675781 44.175781 18.273438 43.636719 17.464844 C 43.097656 16.65625 42.828125 15.484375 42.828125 13.953125 C 42.828125 12.414062 43.097656 11.242188 43.636719 10.433594 C 44.175781 9.625 44.957031 9.222656 45.976562 9.222656 Z M 45.976562 9.222656 "/>
<path style=" stroke:none;fill-rule:nonzero;fill:rgb(0%,0%,0%);fill-opacity:1;" d="M 53.929688 10.199219 C 53.292969 10.199219 52.816406 10.511719 52.496094 11.136719 C 52.179688 11.757812 52.019531 12.699219 52.019531 13.953125 C 52.019531 15.199219 52.179688 16.136719 52.496094 16.761719 C 52.816406 17.386719 53.292969 17.699219 53.929688 17.699219 C 54.566406 17.699219 55.046875 17.386719 55.367188 16.761719 C 55.6875 16.136719 55.847656 15.199219 55.847656 13.953125 C 55.847656 12.699219 55.6875 11.757812 55.367188 11.136719 C 55.046875 10.511719 54.566406 10.199219 53.929688 10.199219 Z M 53.929688 9.222656 C 54.949219 9.222656 55.730469 9.625 56.269531 10.433594 C 56.808594 11.242188 57.078125 12.414062 57.078125 13.953125 C 57.078125 15.484375 56.808594 16.65625 56.269531 17.464844 C 55.730469 18.273438 54.949219 18.675781 53.929688 18.675781 C 52.90625 18.675781 52.128906 18.273438 51.589844 17.464844 C 51.050781 16.65625 50.78125 15.484375 50.78125 13.953125 C 50.78125 12.414062 51.050781 11.242188 51.589844 10.433594 C 52.128906 9.625 52.90625 9.222656 53.929688 9.222656 Z M 53.929688 9.222656 "/>
<path style=" stroke:none;fill-rule:nonzero;fill:rgb(0%,0%,0%);fill-opacity:1;" d="M 9 105.464844 L 9.933594 105.464844 L 9.933594 106.539062 C 9.933594 106.941406 10.015625 107.222656 10.179688 107.378906 C 10.34375 107.535156 10.636719 107.613281 11.058594 107.613281 L 11.660156 107.613281 L 11.660156 105.765625 L 12.535156 105.765625 L 12.535156 107.613281 L 18.496094 107.613281 L 18.496094 108.742188 L 12.535156 108.742188 L 12.535156 109.816406 L 11.660156 109.816406 L 11.660156 108.742188 L 11.183594 108.742188 C 10.425781 108.742188 9.871094 108.566406 9.523438 108.210938 C 9.175781 107.859375 9 107.296875 9 106.527344 Z M 9 105.464844 "/>
<path style=" stroke:none;fill-rule:nonzero;fill:rgb(0%,0%,0%);fill-opacity:1;" d="M 9.011719 101.828125 C 9.949219 102.375 10.875 102.777344 11.789062 103.042969 C 12.707031 103.308594 13.632812 103.441406 14.574219 103.441406 C 15.511719 103.441406 16.441406 103.308594 17.363281 103.039062 C 18.285156 102.773438 19.214844 102.371094 20.144531 101.828125 L 20.144531 102.804688 C 19.1875 103.414062 18.25 103.871094 17.324219 104.175781 C 16.402344 104.476562 15.484375 104.628906 14.574219 104.628906 C 13.667969 104.628906 12.753906 104.480469 11.832031 104.179688 C 10.914062 103.875 9.972656 103.417969 9.011719 102.804688 Z M 9.011719 101.828125 "/>
<path style=" stroke:none;fill-rule:nonzero;fill:rgb(0%,0%,0%);fill-opacity:1;" d="M 11.660156 93.964844 L 14.988281 96.4375 L 18.496094 93.839844 L 18.496094 95.164062 L 15.8125 97.152344 L 18.496094 99.140625 L 18.496094 100.46875 L 14.921875 97.8125 L 11.660156 100.242188 L 11.660156 98.917969 L 14.097656 97.105469 L 11.660156 95.292969 Z M 11.660156 93.964844 "/>
<path style=" stroke:none;fill-rule:nonzero;fill:rgb(0%,0%,0%);fill-opacity:1;" d="M 9.011719 92.429688 L 9.011719 91.453125 C 9.972656 90.84375 10.914062 90.386719 11.832031 90.082031 C 12.753906 89.777344 13.667969 89.628906 14.574219 89.628906 C 15.484375 89.628906 16.402344 89.777344 17.324219 90.082031 C 18.25 90.386719 19.1875 90.84375 20.144531 91.453125 L 20.144531 92.429688 C 19.214844 91.886719 18.285156 91.484375 17.363281 91.21875 C 16.441406 90.949219 15.511719 90.816406 14.574219 90.816406 C 13.632812 90.816406 12.707031 90.949219 11.789062 91.21875 C 10.875 91.484375 9.949219 91.886719 9.011719 92.429688 Z M 9.011719 92.429688 "/>
<path style="fill:none;stroke-width:1.5;stroke-linecap:square;stroke-linejoin:round;stroke:rgb(12.156863%,46.666667%,70.588235%);stroke-opacity:1;stroke-miterlimit:4;" d="M 62.20625 16.4625 L 66.778125 29.1125 L 71.253125 40.834375 L 75.609375 51.64375 L 79.86875 61.615625 L 84.028125 70.79375 L 88.084375 79.21875 L 92.040625 86.925 L 95.884375 93.93125 L 99.640625 100.321875 L 103.296875 106.1125 L 106.853125 111.33125 L 110.321875 116.034375 L 113.70625 120.25 L 116.9875 123.990625 L 120.2 127.315625 L 123.325 130.2375 L 126.365625 132.778125 L 129.346875 134.98125 L 132.25625 136.859375 L 135.109375 138.4375 L 137.90625 139.73125 L 140.64375 140.75625 L 143.353125 141.534375 L 146.034375 142.071875 L 148.6875 142.378125 L 151.325 142.459375 L 153.9625 142.31875 L 156.603125 141.95625 L 159.253125 141.36875 L 161.934375 140.54375 L 164.646875 139.475 L 167.396875 138.153125 L 170.19375 136.559375 L 173.046875 134.675 L 175.95625 132.4875 L 178.940625 129.9625 L 181.99375 127.08125 L 185.11875 123.825 L 188.33125 120.15625 L 191.628125 116.04375 L 195.0125 111.4625 L 198.465625 106.40625 L 202.021875 100.803125 L 205.665625 94.646875 L 209.40625 87.88125 L 213.25 80.465625 L 217.178125 72.396875 L 221.190625 63.640625 L 225.321875 54.096875 L 229.55 43.75625 L 233.89375 32.540625 L 238.3375 20.4375 L 239.74375 16.48125 " transform="matrix(1.25,0,0,1.25,0,0)"/>
<path style="fill:none;stroke-width:1.5;stroke-linecap:square;stroke-linejoin:round;stroke:rgb(100%,49.803922%,5.490196%);stroke-opacity:1;stroke-miterlimit:4;" d="M 165.315625 139.175 L 133.771875 137.73125 L 171.625 135.646875 L 126.203125 132.65 L 180.709375 128.33125 L 115.303125 122.1125 L 193.7875 113.159375 L 99.60625 100.265625 L 212.625 81.7 L 77 54.9625 L 239.75 16.4625 " transform="matrix(1.25,0,0,1.25,0,0)"/>
<path style="fill-rule:nonzero;fill:rgb(100%,49.803922%,5.490196%);fill-opacity:1;stroke-width:1;stroke-linecap:butt;stroke-linejoin:round;stroke:rgb(100%,49.803922%,5.490196%);stroke-opacity:1;stroke-miterlimit:4;" d="M 0.000208 2.998752 C 0.797083 2.998752 1.559583 2.683127 2.122083 2.120627 C 2.684583 1.558127 3.000208 0.795627 3.000208 -0.001248 C 3.000208 -0.794998 2.684583 -1.557498 2.122083 -2.119998 C 1.559583 -2.682498 0.797083 -3.001248 0.000208 -3.001248 C -0.796667 -3.001248 -1.559167 -2.682498 -2.121667 -2.119998 C -2.684167 -1.557498 -2.999792 -0.794998 -2.999792 -0.001248 C -2.999792 0.795627 -2.684167 1.558127 -2.121667 2.120627 C -1.559167 2.683127 -0.796667 2.998752 0.000208 2.998752 Z M 0.000208 2.998752 " transform="matrix(1.25,0,0,1.25,206.644271,173.97031)"/>
<path style="fill-rule:nonzero;fill:rgb(100%,49.803922%,5.490196%);fill-opacity:1;stroke-width:1;stroke-linecap:butt;stroke-linejoin:round;stroke:rgb(100%,49.803922%,5.490196%);stroke-opacity:1;stroke-miterlimit:4;" d="M -0.001502 3.001102 C 0.795373 3.001102 1.557873 2.682352 2.120373 2.119852 C 2.682873 1.557352 2.998498 0.794852 2.998498 0.001102 C 2.998498 -0.795773 2.682873 -1.558273 2.120373 -2.120773 C 1.557873 -2.683273 0.795373 -2.998898 -0.001502 -2.998898 C -0.795252 -2.998898 -1.557752 -2.683273 -2.120252 -2.120773 C -2.682752 -1.558273 -3.001502 -0.795773 -3.001502 0.001102 C -3.001502 0.794852 -2.682752 1.557352 -2.120252 2.119852 C -1.557752 2.682352 -0.795252 3.001102 -0.001502 3.001102 Z M -0.001502 3.001102 " transform="matrix(1.25,0,0,1.25,167.216721,172.162685)"/>
<path style="fill-rule:nonzero;fill:rgb(100%,49.803922%,5.490196%);fill-opacity:1;stroke-width:1;stroke-linecap:butt;stroke-linejoin:round;stroke:rgb(100%,49.803922%,5.490196%);stroke-opacity:1;stroke-miterlimit:4;" d="M 0.001175 2.99911 C 0.794925 2.99911 1.557425 2.683485 2.119925 2.120985 C 2.682425 1.558485 3.001175 0.795985 3.001175 -0.00089 C 3.001175 -0.79464 2.682425 -1.560265 2.119925 -2.122765 C 1.557425 -2.685265 0.794925 -3.00089 0.001175 -3.00089 C -0.7957 -3.00089 -1.5582 -2.685265 -2.1207 -2.122765 C -2.6832 -1.560265 -2.998825 -0.79464 -2.998825 -0.00089 C -2.998825 0.795985 -2.6832 1.558485 -2.1207 2.120985 C -1.5582 2.683485 -0.7957 2.99911 0.001175 2.99911 Z M 0.001175 2.99911 " transform="matrix(1.25,0,0,1.25,214.529781,169.559706)"/>
<path style="fill-rule:nonzero;fill:rgb(100%,49.803922%,5.490196%);fill-opacity:1;stroke-width:1;stroke-linecap:butt;stroke-linejoin:round;stroke:rgb(100%,49.803922%,5.490196%);stroke-opacity:1;stroke-miterlimit:4;" d="M -0.000163 3.000868 C 0.796712 3.000868 1.559212 2.685243 2.121712 2.122743 C 2.684212 1.560243 2.999837 0.794618 2.999837 0.000868 C 2.999837 -0.796007 2.684212 -1.558507 2.121712 -2.121007 C 1.559212 -2.683507 0.796712 -2.999132 -0.000163 -2.999132 C -0.797038 -2.999132 -1.559538 -2.683507 -2.122038 -2.121007 C -2.684538 -1.558507 -3.000163 -0.796007 -3.000163 0.000868 C -3.000163 0.794618 -2.684538 1.560243 -2.122038 2.122743 C -1.559538 2.685243 -0.797038 3.000868 -0.000163 3.000868 Z M -0.000163 3.000868 " transform="matrix(1.25,0,0,1.25,157.75411,165.811415)"/>
<path style="fill-rule:nonzero;fill:rgb(100%,49.803922%,5.490196%);fill-opacity:1;stroke-width:1;stroke-linecap:butt;stroke-linejoin:round;stroke:rgb(100%,49.803922%,5.490196%);stroke-opacity:1;stroke-miterlimit:4;" d="M 0.001442 3.000149 C 0.795192 3.000149 1.557692 2.684524 2.120192 2.122024 C 2.682692 1.559524 3.001442 0.797024 3.001442 0.000149 C 3.001442 -0.796726 2.682692 -1.559226 2.120192 -2.121726 C 1.557692 -2.684226 0.795192 -2.999851 0.001442 -2.999851 C -0.795433 -2.999851 -1.557933 -2.684226 -2.120433 -2.121726 C -2.682933 -1.559226 -2.998558 -0.796726 -2.998558 0.000149 C -2.998558 0.797024 -2.682933 1.559524 -2.120433 2.122024 C -1.557933 2.684524 -0.795433 3.000149 0.001442 3.000149 Z M 0.001442 3.000149 " transform="matrix(1.25,0,0,1.25,225.884916,160.413876)"/>
<path style="fill-rule:nonzero;fill:rgb(100%,49.803922%,5.490196%);fill-opacity:1;stroke-width:1;stroke-linecap:butt;stroke-linejoin:round;stroke:rgb(100%,49.803922%,5.490196%);stroke-opacity:1;stroke-miterlimit:4;" d="M 0.000766 2.999363 C 0.794516 2.999363 1.560141 2.683738 2.122641 2.121238 C 2.685141 1.558738 3.000766 0.796238 3.000766 -0.000637 C 3.000766 -0.794387 2.685141 -1.560012 2.122641 -2.122512 C 1.560141 -2.685012 0.794516 -3.000637 0.000766 -3.000637 C -0.796109 -3.000637 -1.558609 -2.685012 -2.121109 -2.122512 C -2.683609 -1.560012 -2.999234 -0.794387 -2.999234 -0.000637 C -2.999234 0.796238 -2.683609 1.558738 -2.121109 2.121238 C -1.558609 2.683738 -0.796109 2.999363 0.000766 2.999363 Z M 0.000766 2.999363 " transform="matrix(1.25,0,0,1.25,144.127949,152.641421)"/>
<path style="fill-rule:nonzero;fill:rgb(100%,49.803922%,5.490196%);fill-opacity:1;stroke-width:1;stroke-linecap:butt;stroke-linejoin:round;stroke:rgb(100%,49.803922%,5.490196%);stroke-opacity:1;stroke-miterlimit:4;" d="M -0.001547 3.000107 C 0.795328 3.000107 1.557828 2.684482 2.120328 2.121982 C 2.682828 1.559482 2.998453 0.796982 2.998453 0.000107 C 2.998453 -0.796768 2.682828 -1.559268 2.120328 -2.121768 C 1.557828 -2.684268 0.795328 -2.999893 -0.001547 -2.999893 C -0.795297 -2.999893 -1.557797 -2.684268 -2.120297 -2.121768 C -2.682797 -1.559268 -3.001547 -0.796768 -3.001547 0.000107 C -3.001547 0.796982 -2.682797 1.559482 -2.120297 2.121982 C -1.557797 2.684482 -0.795297 3.000107 -0.001547 3.000107 Z M -0.001547 3.000107 " transform="matrix(1.25,0,0,1.25,242.236309,141.449085)"/>
<path style="fill-rule:nonzero;fill:rgb(100%,49.803922%,5.490196%);fill-opacity:1;stroke-width:1;stroke-linecap:butt;stroke-linejoin:round;stroke:rgb(100%,49.803922%,5.490196%);stroke-opacity:1;stroke-miterlimit:4;" d="M 0.001229 2.999929 C 0.794979 2.999929 1.557479 2.684304 2.119979 2.121804 C 2.682479 1.559304 3.001229 0.796804 3.001229 -0.000071 C 3.001229 -0.796946 2.682479 -1.559446 2.119979 -2.121946 C 1.557479 -2.684446 0.794979 -3.000071 0.001229 -3.000071 C -0.795646 -3.000071 -1.558146 -2.684446 -2.120646 -2.121946 C -2.683146 -1.559446 -2.998771 -0.796946 -2.998771 -0.000071 C -2.998771 0.796804 -2.683146 1.559304 -2.120646 2.121804 C -1.558146 2.684304 -0.795646 2.999929 0.001229 2.999929 Z M 0.001229 2.999929 " transform="matrix(1.25,0,0,1.25,124.506276,125.33212)"/>
<path style="fill-rule:nonzero;fill:rgb(100%,49.803922%,5.490196%);fill-opacity:1;stroke-width:1;stroke-linecap:butt;stroke-linejoin:round;stroke:rgb(100%,49.803922%,5.490196%);stroke-opacity:1;stroke-miterlimit:4;" d="M -0.000853 3.001046 C 0.796022 3.001046 1.558522 2.685421 2.121022 2.119796 C 2.683522 1.557296 2.999147 0.794796 2.999147 0.001046 C 2.999147 -0.795829 2.683522 -1.558329 2.121022 -2.120829 C 1.558522 -2.683329 0.796022 -2.998954 -0.000853 -2.998954 C -0.794603 -2.998954 -1.560228 -2.683329 -2.122728 -2.120829 C -2.685228 -1.558329 -3.000853 -0.795829 -3.000853 0.001046 C -3.000853 0.794796 -2.685228 1.557296 -2.122728 2.119796 C -1.560228 2.685421 -0.794603 3.001046 -0.000853 3.001046 Z M -0.000853 3.001046 " transform="matrix(1.25,0,0,1.25,265.782316,102.123693)"/>
<path style="fill-rule:nonzero;fill:rgb(100%,49.803922%,5.490196%);fill-opacity:1;stroke-width:1;stroke-linecap:butt;stroke-linejoin:round;stroke:rgb(100%,49.803922%,5.490196%);stroke-opacity:1;stroke-miterlimit:4;" d="M -0.000855 2.999656 C 0.79602 2.999656 1.55852 2.684031 2.12102 2.121531 C 2.68352 1.559031 2.999145 0.796531 2.999145 -0.000344 C 2.999145 -0.794094 2.68352 -1.559719 2.12102 -2.122219 C 1.55852 -2.684719 0.79602 -3.000344 -0.000855 -3.000344 C -0.794605 -3.000344 -1.56023 -2.684719 -2.12273 -2.122219 C -2.68523 -1.559719 -3.000855 -0.794094 -3.000855 -0.000344 C -3.000855 0.796531 -2.68523 1.559031 -2.12273 2.121531 C -1.56023 2.684031 -0.794605 2.999656 -0.000855 2.999656 Z M -0.000855 2.999656 " transform="matrix(1.25,0,0,1.25,96.251069,68.703555)"/>
<path style="fill-rule:nonzero;fill:rgb(100%,49.803922%,5.490196%);fill-opacity:1;stroke-width:1;stroke-linecap:butt;stroke-linejoin:round;stroke:rgb(100%,49.803922%,5.490196%);stroke-opacity:1;stroke-miterlimit:4;" d="M -0.000852 2.999653 C 0.796023 2.999653 1.558523 2.684028 2.121023 2.121528 C 2.683523 1.559028 2.999148 0.796528 2.999148 -0.000347 C 2.999148 -0.794097 2.683523 -1.559722 2.121023 -2.122222 C 1.558523 -2.684722 0.796023 -3.000347 -0.000852 -3.000347 C -0.794602 -3.000347 -1.560227 -2.684722 -2.122727 -2.122222 C -2.685227 -1.559722 -3.000852 -0.794097 -3.000852 -0.000347 C -3.000852 0.796528 -2.685227 1.559028 -2.122727 2.121528 C -1.560227 2.684028 -0.794602 2.999653 -0.000852 2.999653 Z M -0.000852 2.999653 " transform="matrix(1.25,0,0,1.25,299.688565,20.578559)"/>
<path style="fill:none;stroke-width:0.8;stroke-linecap:square;stroke-linejoin:miter;stroke:rgb(0%,0%,0%);stroke-opacity:1;stroke-miterlimit:4;" d="M 53.328125 148.7625 L 53.328125 10.1625 " transform="matrix(1.25,0,0,1.25,0,0)"/>
<path style="fill:none;stroke-width:0.8;stroke-linecap:square;stroke-linejoin:miter;stroke:rgb(0%,0%,0%);stroke-opacity:1;stroke-miterlimit:4;" d="M 248.628125 148.7625 L 248.628125 10.1625 " transform="matrix(1.25,0,0,1.25,0,0)"/>
<path style="fill:none;stroke-width:0.8;stroke-linecap:square;stroke-linejoin:miter;stroke:rgb(0%,0%,0%);stroke-opacity:1;stroke-miterlimit:4;" d="M 53.328125 148.7625 L 248.628125 148.7625 " transform="matrix(1.25,0,0,1.25,0,0)"/>
<path style="fill:none;stroke-width:0.8;stroke-linecap:square;stroke-linejoin:miter;stroke:rgb(0%,0%,0%);stroke-opacity:1;stroke-miterlimit:4;" d="M 53.328125 10.1625 L 248.628125 10.1625 " transform="matrix(1.25,0,0,1.25,0,0)"/>
</g>
</svg>
